<svg xmlns="http://www.w3.org/2000/svg" viewBox="0 0 200 200" role="img" aria-label="AppServicios icon 192">
  <defs>
    <linearGradient id="bgGrad" x1="0%" y1="0%" x2="100%" y2="100%">
      <stop offset="0%" style="stop-color:#152B46;stop-opacity:1" />
      <stop offset="100%" style="stop-color:#091321;stop-opacity:1" />
    </linearGradient>
    <radialGradient id="globeGlow" cx="50%" cy="42%" r="42%">
      <stop offset="0%" style="stop-color:#66E6FF;stop-opacity:0.65" />
      <stop offset="100%" style="stop-color:#66E6FF;stop-opacity:0" />
    </radialGradient>
    <linearGradient id="routeGrad" x1="0%" y1="0%" x2="100%" y2="0%">
      <stop offset="0%" style="stop-color:#FFB547;stop-opacity:1" />
      <stop offset="100%" style="stop-color:#FF7A1A;stop-opacity:1" />
    </linearGradient>
    <linearGradient id="clientGrad" x1="0%" y1="0%" x2="100%" y2="100%">
      <stop offset="0%" style="stop-color:#63D5FF;stop-opacity:1" />
      <stop offset="100%" style="stop-color:#0587D8;stop-opacity:1" />
    </linearGradient>
    <linearGradient id="proGrad" x1="0%" y1="0%" x2="100%" y2="100%">
      <stop offset="0%" style="stop-color:#8CDB91;stop-opacity:1" />
      <stop offset="100%" style="stop-color:#2F9141;stop-opacity:1" />
    </linearGradient>
    <linearGradient id="pinGrad" x1="0%" y1="0%" x2="100%" y2="100%">
      <stop offset="0%" style="stop-color:#FFB547;stop-opacity:1" />
      <stop offset="100%" style="stop-color:#F45D22;stop-opacity:1" />
    </linearGradient>
  </defs>

  <circle cx="100" cy="100" r="100" fill="url(#bgGrad)"/>
  <circle cx="100" cy="100" r="93" fill="none" stroke="#FFFFFF" stroke-width="0.5" stroke-opacity="0.08"/>
  <circle cx="100" cy="84" r="34" fill="url(#globeGlow)"/>
  <circle cx="100" cy="84" r="28" fill="#122A45" stroke="#67DAFF" stroke-width="1.6"/>
  <ellipse cx="100" cy="84" rx="11" ry="28" fill="none" stroke="#B7F3FF" stroke-width="1" opacity="0.55"/>
  <ellipse cx="100" cy="84" rx="21" ry="28" fill="none" stroke="#B7F3FF" stroke-width="1" opacity="0.25"/>
  <path d="M72,84 H128" fill="none" stroke="#B7F3FF" stroke-width="1" opacity="0.35"/>
  <path d="M78,72 Q100,64 122,72" fill="none" stroke="#B7F3FF" stroke-width="1" opacity="0.35"/>
  <path d="M78,96 Q100,104 122,96" fill="none" stroke="#B7F3FF" stroke-width="1" opacity="0.35"/>
  <path d="M84,73c4,-7 14,-9 22,-6c3,1 7,0 11,-2c-1,6 4,9 8,12c-5,2 -8,6 -11,10c-8,-1 -13,5 -20,8c-8,-3 -12,-11 -10,-22z" fill="#58D4FF" opacity="0.65"/>
  <path d="M95,89c5,-4 13,-4 18,0c4,3 9,2 12,0c-1,7 -6,13 -13,16c-6,3 -13,3 -19,0c-5,-3 -8,-8 -9,-13c4,1 8,0 11,-3z" fill="#84D991" opacity="0.65"/>
  <path d="M67,84 Q100,51 133,84" fill="none" stroke="#8EEBFF" stroke-width="1.2" opacity="0.25"/>
  <path d="M67,84 Q100,117 133,84" fill="none" stroke="#8EEBFF" stroke-width="1.2" opacity="0.18"/>
  <circle cx="138" cy="55" r="2.4" fill="#FFD166" opacity="0.9"/>
  <circle cx="61" cy="60" r="1.8" fill="#FFD166" opacity="0.6"/>
  <path d="M63,128 Q82,108 100,112 Q118,116 137,128" fill="none" stroke="url(#routeGrad)" stroke-width="4" stroke-linecap="round" stroke-dasharray="5 6"/>
  <circle cx="64" cy="128" r="3.2" fill="#FFB547"/>
  <circle cx="136" cy="128" r="3.2" fill="#FF7A1A"/>
  <circle cx="54" cy="137" r="11" fill="url(#clientGrad)"/>
  <path d="M38,170 Q38,148 54,148 Q70,148 70,170 L70,180 Q70,184 66,184 H42 Q38,184 38,180 Z" fill="url(#clientGrad)"/>
  <path d="M63,154 Q71,145 77,132" fill="none" stroke="#63D5FF" stroke-width="5" stroke-linecap="round"/>
  <circle cx="78" cy="129" r="3.4" fill="#D9F7FF"/>
  <path d="M46,154 Q39,149 34,146" fill="none" stroke="#63D5FF" stroke-width="4" stroke-linecap="round"/>
  <circle cx="146" cy="137" r="11" fill="url(#proGrad)"/>
  <path d="M130,170 Q130,148 146,148 Q162,148 162,170 L162,180 Q162,184 158,184 H134 Q130,184 130,180 Z" fill="url(#proGrad)"/>
  <path d="M138,154 Q132,149 126,146" fill="none" stroke="#8CDB91" stroke-width="4" stroke-linecap="round"/>
  <path d="M150,154 Q158,150 165,147" fill="none" stroke="#8CDB91" stroke-width="4" stroke-linecap="round"/>
  <path d="M100,132c-12.2,0 -22,8.9 -22,20c0,16.7 22,38 22,38s22,-21.3 22,-38c0,-11.1 -9.8,-20 -22,-20z" fill="url(#pinGrad)"/>
  <circle cx="100" cy="152" r="8" fill="#FFF4E0"/>
  <circle cx="100" cy="152" r="3" fill="#F47A1F" opacity="0.85"/>
</svg>