<svg xmlns="http://www.w3.org/2000/svg" viewBox="0 0 512 512" role="img" aria-label="AppServicios icon 512">
  <defs>
    <linearGradient id="bg512" x1="0" y1="0" x2="1" y2="1">
      <stop offset="0%" stop-color="#07111f" />
      <stop offset="100%" stop-color="#14315a" />
    </linearGradient>
    <linearGradient id="accent512" x1="0" y1="0" x2="1" y2="1">
      <stop offset="0%" stop-color="#6ef2ff" />
      <stop offset="52%" stop-color="#9eff8a" />
      <stop offset="100%" stop-color="#b86bff" />
    </linearGradient>
  </defs>
  <rect width="512" height="512" rx="118" fill="url(#bg512)" />
  <rect x="20" y="20" width="472" height="472" rx="104" fill="none" stroke="rgba(255,255,255,0.08)" />
  <path d="M138 168C180 110 332 110 374 168" fill="none" stroke="url(#accent512)" stroke-width="26" stroke-linecap="round" />
  <circle cx="138" cy="168" r="25" fill="#9eff8a" />
  <circle cx="374" cy="168" r="25" fill="#6ef2ff" />
  <path d="M256 188c-50.5 0-90 39.5-90 90 0 69.2 90 146 90 146s90-76.8 90-146c0-50.5-39.5-90-90-90Z" fill="url(#accent512)" />
  <path d="M256 224l40 90h-24.8l-6.9-17.8h-40.8l-7.1 17.8H191l41.5-90H256Zm-1.3 29.2-15.1 35h29.9l-14.8-35Z" fill="#07111f" />
</svg>