<svg xmlns="http://www.w3.org/2000/svg" viewBox="0 0 512 512" role="img" aria-label="AppServicios icon 512">
  <defs>
    <linearGradient id="bg512" x1="0" y1="0" x2="1" y2="1">
      <stop offset="0%" stop-color="#07111f" />
      <stop offset="100%" stop-color="#14315a" />
    </linearGradient>
    <linearGradient id="shield512" x1="0" y1="0" x2="1" y2="1">
      <stop offset="0%" stop-color="#6ef2ff" />
      <stop offset="55%" stop-color="#9eff8a" />
      <stop offset="100%" stop-color="#b86bff" />
    </linearGradient>
  </defs>
  <rect width="512" height="512" rx="118" fill="url(#bg512)" />
  <rect x="20" y="20" width="472" height="472" rx="104" fill="none" stroke="rgba(255,255,255,0.08)" />
  <path d="M256 94 364 135v101c0 77.4-44.3 144.3-108 177-63.7-32.7-108-99.6-108-177V135z" fill="url(#shield512)" />
  <path d="M256 113 346 147v87.6c0 61.5-35.7 115.5-90 143.6-54.3-28.1-90-82.1-90-143.6V147z" fill="#ffffff" opacity="0.08" />
  <circle cx="232" cy="233" r="45" fill="none" stroke="#07111f" stroke-width="20" />
  <path d="M262 263 310 311" fill="none" stroke="#07111f" stroke-width="20" stroke-linecap="round" />
  <path d="M212 233l16 16 29-31" fill="none" stroke="#07111f" stroke-width="14" stroke-linecap="round" stroke-linejoin="round" />
</svg>