<svg xmlns="http://www.w3.org/2000/svg" viewBox="0 0 192 192" role="img" aria-label="AppServicios icon 192">
  <defs>
    <linearGradient id="bg192" x1="0" y1="0" x2="1" y2="1">
      <stop offset="0%" stop-color="#07111f" />
      <stop offset="100%" stop-color="#14315a" />
    </linearGradient>
    <linearGradient id="shield192" x1="0" y1="0" x2="1" y2="1">
      <stop offset="0%" stop-color="#6ef2ff" />
      <stop offset="55%" stop-color="#9eff8a" />
      <stop offset="100%" stop-color="#b86bff" />
    </linearGradient>
  </defs>
  <rect width="192" height="192" rx="44" fill="url(#bg192)" />
  <rect x="8" y="8" width="176" height="176" rx="38" fill="none" stroke="rgba(255,255,255,0.08)" />
  <path d="M96 35 136 50v37.5c0 28.4-16.2 53-40 65-23.8-12-40-36.6-40-65V50z" fill="url(#shield192)" />
  <path d="M96 42 130 55v32.4c0 22.9-13.5 43-34 53.3-20.5-10.3-34-30.4-34-53.3V55z" fill="#ffffff" opacity="0.08" />
  <circle cx="87" cy="87" r="17" fill="none" stroke="#07111f" stroke-width="8" />
  <path d="M98.5 98.5 117 117" fill="none" stroke="#07111f" stroke-width="8" stroke-linecap="round" />
  <path d="M79.4 87.3l6 6 10.6-11.5" fill="none" stroke="#07111f" stroke-width="5.5" stroke-linecap="round" stroke-linejoin="round" />
</svg>