<svg xmlns="http://www.w3.org/2000/svg" viewBox="0 0 192 192" role="img" aria-label="AppServicios icon 192">
  <defs>
    <linearGradient id="bg192" x1="0" y1="0" x2="1" y2="1">
      <stop offset="0%" stop-color="#07111f" />
      <stop offset="100%" stop-color="#14315a" />
    </linearGradient>
    <linearGradient id="accent192" x1="0" y1="0" x2="1" y2="1">
      <stop offset="0%" stop-color="#6ef2ff" />
      <stop offset="52%" stop-color="#9eff8a" />
      <stop offset="100%" stop-color="#b86bff" />
    </linearGradient>
  </defs>
  <rect width="192" height="192" rx="44" fill="url(#bg192)" />
  <rect x="8" y="8" width="176" height="176" rx="38" fill="none" stroke="rgba(255,255,255,0.08)" />
  <path d="M52 63C68 41 124 41 140 63" fill="none" stroke="url(#accent192)" stroke-width="10" stroke-linecap="round" />
  <circle cx="52" cy="63" r="10" fill="#9eff8a" />
  <circle cx="140" cy="63" r="10" fill="#6ef2ff" />
  <path d="M96 70c-19.1 0-34 14.9-34 34 0 25.7 34 56 34 56s34-30.3 34-56c0-19.1-14.9-34-34-34Z" fill="url(#accent192)" />
  <path d="M96 84l15.5 35h-9.6l-2.7-6.9H83.3l-2.8 6.9H71L87 84h9Zm-0.5 11.7-6 14h11.9l-5.9-14Z" fill="#07111f" />
</svg>