<svg xmlns="http://www.w3.org/2000/svg" viewBox="0 0 96 96" role="img" aria-label="Logo AppServicios">
  <defs>
    <linearGradient id="bg" x1="0" y1="0" x2="1" y2="1">
      <stop offset="0%" stop-color="#07111f" />
      <stop offset="100%" stop-color="#14315a" />
    </linearGradient>
    <linearGradient id="accent" x1="0" y1="0" x2="1" y2="1">
      <stop offset="0%" stop-color="#6ef2ff" />
      <stop offset="52%" stop-color="#9eff8a" />
      <stop offset="100%" stop-color="#b86bff" />
    </linearGradient>
    <filter id="glow" x="-40%" y="-40%" width="180%" height="180%">
      <feGaussianBlur stdDeviation="2.6" result="blur" />
      <feMerge>
        <feMergeNode in="blur" />
        <feMergeNode in="SourceGraphic" />
      </feMerge>
    </filter>
  </defs>

  <rect x="4" y="4" width="88" height="88" rx="24" fill="url(#bg)" />
  <rect x="6" y="6" width="84" height="84" rx="22" fill="none" stroke="rgba(255,255,255,0.08)" />

  <path d="M26 31C34 20 62 20 70 31" fill="none" stroke="url(#accent)" stroke-width="5" stroke-linecap="round" filter="url(#glow)" />
  <circle cx="26" cy="31" r="5.5" fill="#9eff8a" />
  <circle cx="70" cy="31" r="5.5" fill="#6ef2ff" />

  <path d="M48 34c-9.4 0-17 7.6-17 17 0 13.2 17 28.4 17 28.4S65 64.2 65 51c0-9.4-7.6-17-17-17Z" fill="url(#accent)" />
  <path d="M48 41l8.2 19h-5.1l-1.5-3.8h-8.3L39.8 60h-5.1L43 41h5Zm-0.2 6.3-3.2 7.4h6.3l-3.1-7.4Z" fill="#07111f" />
</svg>
