<svg xmlns="http://www.w3.org/2000/svg" viewBox="0 0 96 96" role="img" aria-label="Logo AppServicios Premium">
  <defs>
    <linearGradient id="bg" x1="0" y1="0" x2="1" y2="1">
      <stop offset="0%" stop-color="#07111f" />
      <stop offset="100%" stop-color="#14315a" />
    </linearGradient>
    <linearGradient id="shield" x1="0" y1="0" x2="1" y2="1">
      <stop offset="0%" stop-color="#6ef2ff" />
      <stop offset="55%" stop-color="#9eff8a" />
      <stop offset="100%" stop-color="#b86bff" />
    </linearGradient>
  </defs>

  <rect x="4" y="4" width="88" height="88" rx="24" fill="url(#bg)" />
  <rect x="6" y="6" width="84" height="84" rx="22" fill="none" stroke="rgba(255,255,255,0.08)" />

  <path d="M48 18 68 26v18.5c0 14.6-8.1 27.1-20 33.5-11.9-6.4-20-18.9-20-33.5V26L48 18Z" fill="url(#shield)" />
  <path d="M48 22 64.5 28.5v15.8c0 11.8-6.5 22.1-16.5 27.6-10-5.5-16.5-15.8-16.5-27.6V28.5L48 22Z" fill="#ffffff" opacity="0.08" />
  <circle cx="43.5" cy="44" r="8.5" fill="none" stroke="#07111f" stroke-width="4.4" />
  <path d="M49.3 49.8 58.8 59.3" fill="none" stroke="#07111f" stroke-width="4.4" stroke-linecap="round" />
  <path d="M39.7 44.3l3.1 3.1 5.7-6.2" fill="none" stroke="#07111f" stroke-width="3.2" stroke-linecap="round" stroke-linejoin="round" />
</svg>
